<svg width="922" height="134" viewBox="0 0 922 134" fill="none" xmlns="http://www.w3.org/2000/svg">
<path d="M128.508 0H124.878C115.923 0 108.59 7.30406 108.59 16.2244V44.7051C108.59 53.6253 101.257 60.9293 92.3015 60.9293H88.6714C79.7156 60.9293 72.3827 53.6253 72.3827 44.7051V16.2244C72.3827 7.30406 65.081 0 56.1257 0H52.4957C43.54 0 36.207 7.30406 36.207 16.2244V44.7051C36.207 53.6253 28.8741 60.9293 19.9185 60.9293H16.2885C7.33294 60.9293 0 68.2025 0 77.1228V94.487C0 103.407 7.33294 110.711 16.2885 110.711H19.9185C28.8741 110.711 36.207 103.407 36.207 94.487V66.0268C36.207 57.1065 43.54 49.8025 52.4957 49.8025H56.1257C65.081 49.8025 72.3827 57.1065 72.3827 66.0268V94.487C72.3827 103.407 79.7156 110.711 88.6714 110.711H92.3015C101.257 110.711 108.59 103.407 108.59 94.487V66.0268C108.59 57.1065 115.923 49.8025 124.878 49.8025H128.508C137.464 49.8025 144.797 42.4983 144.797 33.578V16.2244C144.797 7.30406 137.464 0 128.508 0Z" fill="#F4900A"/>
<path d="M269.409 104.358H257.394L202.633 25.5676H201.654V104.358H189.082V3.21582H201.235L255.998 82.1456H256.975V3.21582H269.409V104.358Z" fill="white"/>
<path d="M280.874 82.8417C280.874 75.0191 283.553 69.5014 288.907 66.2875C294.309 63.0278 301.131 61.0953 309.373 60.49C312.586 60.258 316.404 60.025 320.829 59.792C325.252 59.5591 328.279 59.4197 329.909 59.3729V53.2259C329.909 48.3364 328.442 44.5879 325.508 41.9803C322.621 39.326 318.361 37.9988 312.726 37.9988C308.116 37.9988 304.344 38.9536 301.41 40.8632C298.477 42.7251 296.567 45.1703 295.682 48.197H283.109C283.622 44.1458 285.205 40.5596 287.86 37.4403C290.514 34.32 294.03 31.8987 298.406 30.1758C302.831 28.4063 307.79 27.5215 313.285 27.5215C320.596 27.5215 327.185 29.3842 333.052 33.1095C338.919 36.7881 341.829 43.866 341.784 54.344V104.356H329.909V94.0176H329.35C327.813 97.1847 325.136 100.002 321.318 102.469C317.545 104.891 312.68 106.125 306.719 106.172C301.876 106.125 297.498 105.193 293.587 103.377C289.676 101.516 286.579 98.8374 284.297 95.3448C282.015 91.8063 280.874 87.6386 280.874 82.8417ZM292.889 83.4013C292.935 87.3121 294.402 90.293 297.289 92.342C300.223 94.391 304.111 95.4155 308.954 95.4155C313.285 95.4155 317.033 94.5532 320.199 92.8308C323.367 91.1074 325.764 88.8254 327.394 85.9849C329.07 83.1444 329.909 80.0948 329.909 76.8351V69.2216C328.838 69.2684 325.764 69.4775 320.688 69.8498L310.77 70.5488C305.089 70.9211 300.688 72.1557 297.569 74.2505C294.495 76.3463 292.935 79.3959 292.889 83.4013Z" fill="white"/>
<path d="M388.449 38.5537H372.523V82.5593C372.477 86.9829 373.338 89.9867 375.108 91.5697C376.924 93.106 379.368 93.8746 382.442 93.8746C384.258 93.8746 386.004 93.8049 387.681 93.6655L389.566 93.5958V104.772C387.051 105.144 384.258 105.33 381.184 105.33C377.646 105.33 374.293 104.608 371.126 103.165C367.959 101.674 365.376 99.4391 363.373 96.4592C361.37 93.4793 360.37 89.8702 360.37 85.6328V38.5537H348.914V28.4957H360.37V10.335H372.523V28.4957H388.449V38.5537Z" fill="white"/>
<path d="M398.23 28.4984H410.244V104.355H398.23V28.4984ZM404.237 15.9256C401.955 15.9256 399.976 15.1573 398.299 13.6205C396.669 12.0839 395.855 10.2446 395.855 8.10249C395.855 5.86731 396.647 3.9581 398.23 2.37486C399.859 0.79162 401.815 0 404.097 0C406.472 0 408.497 0.768324 410.174 2.30497C411.851 3.84172 412.712 5.72763 412.759 7.9628C412.712 10.1514 411.851 12.0373 410.174 13.6205C408.544 15.1573 406.565 15.9256 404.237 15.9256Z" fill="white"/>
<path d="M454.679 105.892C447.834 105.892 441.78 104.285 436.518 101.073C431.303 97.8129 427.251 93.2261 424.364 87.3121C421.477 81.3991 420.033 74.5532 420.033 66.7763C420.033 58.9537 421.477 52.0849 424.364 46.1709C427.251 40.2569 431.303 35.6711 436.518 32.411C441.78 29.1513 447.834 27.5215 454.679 27.5215C461.478 27.5215 467.485 29.1513 472.7 32.411C477.916 35.6711 481.943 40.2569 484.784 46.1709C487.624 52.0849 489.045 58.9537 489.045 66.7763C489.045 74.5532 487.624 81.3991 484.784 87.3121C481.943 93.2261 477.916 97.8129 472.7 101.073C467.485 104.285 461.478 105.892 454.679 105.892ZM432.047 66.7763C432.094 71.9924 432.933 76.7654 434.562 81.0964C436.239 85.4264 438.777 88.8722 442.176 91.4339C445.575 93.9947 449.743 95.2751 454.679 95.2751C459.568 95.2751 463.689 93.9947 467.043 91.4339C470.395 88.8722 472.886 85.4264 474.516 81.0964C476.192 76.7654 477.031 71.9924 477.031 66.7763C477.031 61.5613 476.192 56.7882 474.516 52.4573C472.886 48.1273 470.395 44.6576 467.043 42.05C463.689 39.4425 459.568 38.1382 454.679 38.1382C449.743 38.1382 445.575 39.4425 442.176 42.05C438.777 44.6576 436.239 48.1273 434.562 52.4573C432.933 56.7882 432.094 61.5613 432.047 66.7763Z" fill="white"/>
<path d="M511.128 104.356H499.113V28.4994H510.708V40.3734H511.686C513.549 36.3222 516.32 33.1793 519.999 30.9441C523.723 28.6624 528.357 27.5215 533.899 27.5215C539.114 27.5215 543.631 28.5926 547.449 30.7346C551.267 32.83 554.224 36.0195 556.32 40.3037C558.416 44.5879 559.463 49.8736 559.463 56.16V104.356H547.449V56.9983C547.449 51.1301 545.936 46.5443 542.909 43.2378C539.882 39.9313 535.668 38.2786 530.267 38.2786C526.541 38.2786 523.234 39.093 520.348 40.7229C517.461 42.3059 515.202 44.6576 513.572 47.7778C511.942 50.8513 511.128 54.5302 511.128 58.8143V104.356Z" fill="white"/>
<path d="M643.562 34.7854C641.327 28.1264 637.765 22.9342 632.875 19.2089C627.986 15.437 622.002 13.5511 614.924 13.5511C608.871 13.5511 603.422 15.1111 598.579 18.2311C593.736 21.3509 589.894 25.9377 587.054 31.9914C584.213 38.0451 582.793 45.3091 582.793 53.7839C582.793 62.2596 584.213 69.5237 587.054 75.5771C589.941 81.5847 593.853 86.1476 598.789 89.2679C603.771 92.3872 609.429 93.9712 615.762 94.017C621.397 94.017 626.403 92.8064 630.779 90.385C635.157 87.9637 638.579 84.5646 641.047 80.1878C643.515 75.7633 644.773 70.595 644.82 64.681H618.417V53.6445H657.113V64.5406C657.113 72.7834 655.343 80.0246 651.804 86.2641C648.312 92.4579 643.423 97.2538 637.135 100.653C630.896 104.053 623.771 105.752 615.762 105.752C606.775 105.752 598.859 103.657 592.014 99.4661C585.215 95.2277 579.953 89.1982 576.227 81.3746C572.502 73.5052 570.64 64.3086 570.64 53.7839C570.64 43.3069 572.502 34.1567 576.227 26.3335C579.953 18.4638 585.168 12.4102 591.873 8.17277C598.579 3.93519 606.262 1.81641 614.924 1.81641C621.955 1.81641 628.405 3.21347 634.272 6.00739C640.139 8.75481 645.006 12.6198 648.871 17.6024C652.736 22.5849 655.297 28.3126 656.554 34.7854H643.562Z" fill="white"/>
<path d="M668.705 28.4985H680.3V40.0937H681.138C682.489 36.2755 684.957 33.2017 688.542 30.8734C692.174 28.4985 696.225 27.2878 700.696 27.2412C701.348 27.2412 701.86 27.2645 702.233 27.3111C702.791 27.3111 703.607 27.3344 704.677 27.3809C705.748 27.4275 706.517 27.4741 706.982 27.5206V39.6746C704.56 39.116 702.139 38.8362 699.718 38.8362C696.133 38.8362 692.896 39.6049 690.008 41.1411C687.122 42.6784 684.84 44.797 683.164 47.4972C681.534 50.1983 680.719 53.225 680.719 56.5783V104.355H668.705V28.4985Z" fill="white"/>
<path d="M709.232 82.8417C709.232 75.0191 711.909 69.5014 717.264 66.2875C722.666 63.0278 729.488 61.0953 737.73 60.49C740.943 60.258 744.761 60.025 749.185 59.792C753.61 59.5591 756.636 59.4197 758.266 59.3729V53.2259C758.266 48.3364 756.799 44.5879 753.865 41.9803C750.978 39.326 746.718 37.9988 741.083 37.9988C736.473 37.9988 732.702 38.9536 729.767 40.8632C726.833 42.7251 724.925 45.1703 724.04 48.197H711.467C711.979 44.1458 713.563 40.5596 716.217 37.4403C718.871 34.32 722.387 31.8987 726.764 30.1758C731.187 28.4063 736.147 27.5215 741.642 27.5215C748.953 27.5215 755.542 29.3842 761.409 33.1095C767.277 36.7881 770.187 43.866 770.14 54.344V104.356H758.266V94.0176H757.707C756.17 97.1847 753.493 100.002 749.674 102.469C745.903 104.891 741.037 106.125 735.076 106.172C730.233 106.125 725.856 105.193 721.944 103.377C718.033 101.516 714.936 98.8374 712.655 95.3448C710.373 91.8063 709.232 87.6386 709.232 82.8417ZM721.246 83.4013C721.293 87.3121 722.759 90.293 725.647 92.342C728.58 94.391 732.468 95.4155 737.311 95.4155C741.642 95.4155 745.391 94.5532 748.557 92.8308C751.723 91.1074 754.121 88.8254 755.751 85.9849C757.428 83.1444 758.266 80.0948 758.266 76.8351V69.2216C757.195 69.2684 754.121 69.4775 749.046 69.8498L739.127 70.5488C733.446 70.9211 729.046 72.1557 725.925 74.2505C722.853 76.3463 721.293 79.3959 721.246 83.4013Z" fill="white"/>
<path d="M783.696 28.4994H795.291V40.5138H796.688C798.317 37.952 799.785 35.8801 801.088 34.2969C802.439 32.7137 804.581 31.2002 807.515 29.7567C810.448 28.2666 814.15 27.5215 818.62 27.5215C824.953 27.5215 830.542 29.128 835.385 32.3411C840.274 35.5078 844.065 40.0478 846.774 45.9618C849.521 51.8758 850.895 58.7675 850.895 66.637C850.895 74.5532 849.541 81.4917 846.843 87.4525C844.135 93.3665 840.344 97.9294 835.454 101.142C830.612 104.309 825.047 105.892 818.761 105.892C814.383 105.892 810.704 105.171 807.724 103.727C804.79 102.283 802.579 100.7 801.088 98.9778C799.645 97.2076 798.178 95.1357 796.688 92.7611H795.71V132.854H783.696V28.4994ZM795.431 66.3582C795.477 72.085 796.339 77.1149 798.015 81.4449C799.691 85.7758 802.136 89.152 805.35 91.5733C808.609 93.9479 812.52 95.1357 817.084 95.1357C821.741 95.1357 825.699 93.8782 828.959 91.3643C832.264 88.8493 834.732 85.4264 836.362 81.0964C838.039 76.7654 838.877 71.853 838.877 66.3582C838.877 60.9559 838.062 56.1361 836.432 51.8987C834.802 47.6614 832.334 44.332 829.029 41.9106C825.769 39.4893 821.787 38.2786 817.084 38.2786C812.427 38.2786 808.493 39.4425 805.28 41.7712C802.066 44.0522 799.622 47.3119 797.945 51.5493C796.315 55.7408 795.477 60.6771 795.431 66.3582Z" fill="white"/>
<path d="M872.826 104.358H860.809V3.21582H872.826V40.3752H873.802C877.715 31.8074 885.162 27.5233 896.154 27.5233C904.169 27.5233 910.471 29.9447 915.081 34.7877C919.7 39.5837 922 46.7084 922 56.1618V104.358H909.983V57.0001C909.983 51.0393 908.45 46.4296 905.373 43.1699C902.307 39.9102 898.016 38.2804 892.52 38.2804C888.707 38.2804 885.302 39.0948 882.325 40.7247C879.388 42.3077 877.068 44.6594 875.345 47.7796C873.663 50.8531 872.826 54.532 872.826 58.8161V104.358Z" fill="white"/>
</svg>
