<svg width="340" height="316" viewBox="0 0 340 316" fill="none" xmlns="http://www.w3.org/2000/svg">
  <defs>
    <clipPath id="usclip">
      <circle cx="248" cy="280" r="34"/>
    </clipPath>
  </defs>
  <!-- ST monogram -->
  <path d="M267.636 40.6465H339.15V68.2701C339.15 105.728 308.88 136.003 271.417 136.003H267.632V40.6465H267.636ZM165.852 0.537109H267.636V261.241H255.53C181.744 261.241 166.991 209.779 166.991 163.996L165.852 0.537109ZM0.5 59.565C0.5 106.107 33.7972 123.133 70.88 128.811H0.5V262H68.233C136.341 262 144.287 231.729 144.287 202.972C144.287 167.782 120.069 143.19 82.6117 133.726H144.287V0.537109H76.5536C8.44597 0.537109 0.5 30.8077 0.5 59.565Z" fill="#FFFFFF"/>
  <!-- USA flag bubble (positioned in lower-right of S) -->
  <circle cx="248" cy="280" r="36" fill="#FFFFFF"/>
  <g clip-path="url(#usclip)">
    <rect x="214" y="246" width="68" height="68" fill="#B22234"/>
    <rect x="214" y="251.5" width="68" height="5.5" fill="#FFFFFF"/>
    <rect x="214" y="262.5" width="68" height="5.5" fill="#FFFFFF"/>
    <rect x="214" y="273.5" width="68" height="5.5" fill="#FFFFFF"/>
    <rect x="214" y="284.5" width="68" height="5.5" fill="#FFFFFF"/>
    <rect x="214" y="295.5" width="68" height="5.5" fill="#FFFFFF"/>
    <rect x="214" y="306.5" width="68" height="5.5" fill="#FFFFFF"/>
    <rect x="214" y="246" width="34" height="36" fill="#3C3B6E"/>
    <polygon points="231,255 233.65,263.16 242.22,263.16 235.29,268.21 237.94,276.37 231,271.32 224.06,276.37 226.71,268.21 219.78,263.16 228.35,263.16" fill="#FFFFFF"/>
  </g>
</svg>
